<?xml version="1.0" encoding="UTF-8" standalone="no"?>
<!-- Created with Inkscape (http://www.inkscape.org/) -->

<svg
   xmlns:dc="http://purl.org/dc/elements/1.1/"
   xmlns:cc="http://creativecommons.org/ns#"
   xmlns:rdf="http://www.w3.org/1999/02/22-rdf-syntax-ns#"
   xmlns:svg="http://www.w3.org/2000/svg"
   xmlns="http://www.w3.org/2000/svg"
   xmlns:sodipodi="http://sodipodi.sourceforge.net/DTD/sodipodi-0.dtd"
   xmlns:inkscape="http://www.inkscape.org/namespaces/inkscape"
   width="408.38062mm"
   height="115.18983mm"
   viewBox="0 0 408.38062 115.18984"
   version="1.1"
   id="svg8"
   inkscape:export-filename="D:\D-File_Manager\Projects\Journalio\Webpage\images\logo_orange.png"
   inkscape:export-xdpi="997.18079"
   inkscape:export-ydpi="997.18079"
   inkscape:version="0.92.1 r15371"
   sodipodi:docname="logo_orange.svg">
  <defs
     id="defs2" />
  <sodipodi:namedview
     id="base"
     pagecolor="#ffffff"
     bordercolor="#666666"
     borderopacity="1.0"
     inkscape:pageopacity="0.0"
     inkscape:pageshadow="2"
     inkscape:zoom="0.35"
     inkscape:cx="351.06495"
     inkscape:cy="379.12654"
     inkscape:document-units="mm"
     inkscape:current-layer="text4487"
     showgrid="false"
     inkscape:pagecheckerboard="true"
     inkscape:window-width="1920"
     inkscape:window-height="1001"
     inkscape:window-x="-9"
     inkscape:window-y="-9"
     inkscape:window-maximized="1" />
  <metadata
     id="metadata5">
    <rdf:RDF>
      <cc:Work
         rdf:about="">
        <dc:format>image/svg+xml</dc:format>
        <dc:type
           rdf:resource="http://purl.org/dc/dcmitype/StillImage" />
        <dc:title></dc:title>
      </cc:Work>
    </rdf:RDF>
  </metadata>
  <g
     inkscape:label="Layer 1"
     inkscape:groupmode="layer"
     id="layer1"
     transform="translate(1099.8067,177.4738)">
    <g
       inkscape:export-xdpi="997.18079"
       inkscape:export-ydpi="997.18079"
       aria-label="journalio"
       style="font-style:normal;font-variant:normal;font-weight:normal;font-stretch:normal;font-size:90.92057037px;line-height:0;font-family:'Bukhari Script';-inkscape-font-specification:'Bukhari Script, Normal';font-variant-ligatures:normal;font-variant-caps:normal;font-variant-numeric:normal;font-feature-settings:normal;text-align:center;letter-spacing:0px;word-spacing:0px;writing-mode:lr-tb;text-anchor:middle;fill:#ff895c;fill-opacity:1;stroke:none;stroke-width:1.70476031"
       id="text4487">
      <path
         d="m -1040.1628,-143.61397 c 4.1823,-12.8198 -9.3649,-12.91072 -11.9106,-5.36431 -4.5461,13.00164 -10.2741,30.27655 -15.3656,44.642 -4.0914,2.54577 -6.5463,2.54577 -11.9106,4.0005 -9.5467,2.545779 -17.4568,5.546158 -19.9116,13.456248 -0.3637,1.454729 -0.5455,2.818537 -0.5455,4.273267 0,7.819169 6.3644,14.638211 17.0021,14.638211 9.0011,0 17.4568,-4.81879 21.2754,-15.365576 1.2729,-3.818664 2.7276,-7.819169 4.0914,-11.546912 13.0926,-4.091426 26.367,-11.183228 32.6405,-30.276548 2.4549,-7.45549 -8.1828,-10.18311 -11.0923,-1.90933 -3.364,9.27389 -9.3648,14.72913 -16.5475,18.36595 l 8.5465,-24.18487 z m 2.3639,-18.91148 c 4.0914,0 7.4555,-3.36406 7.4555,-7.5464 0,-4.09143 -3.3641,-7.36457 -7.4555,-7.36457 -4.0914,0 -7.4555,3.27314 -7.4555,7.36457 0,4.18234 3.3641,7.5464 7.4555,7.5464 z m -38.0048,78.009853 c -1.4547,3.27314 -4.546,5.091551 -7.1827,5.091551 -2.1821,0 -3.0913,-1.272888 -3.0913,-2.909458 0,-0.545523 0.091,-1.272888 0.3637,-1.909332 1.3638,-3.18222 6.7281,-4.909711 12.6379,-6.45536 z"
         style="font-style:normal;font-variant:normal;font-weight:normal;font-stretch:normal;font-size:90.92057037px;font-family:'Bukhari Script';-inkscape-font-specification:'Bukhari Script, Normal';font-variant-ligatures:normal;font-variant-caps:normal;font-variant-numeric:normal;font-feature-settings:normal;text-align:center;writing-mode:lr-tb;text-anchor:middle;fill:#ff895c;fill-opacity:1;stroke-width:1.70476031"
         id="path4507"
         inkscape:export-xdpi="997.18079"
         inkscape:export-ydpi="997.18079" />
      <path
         d="m -1000.3567,-119.79278 c 0,0.0909 0,-1.36381 -0.3637,-3.0913 0.6365,-0.4546 1.27293,-1.18197 1.81845,-2.00025 1.54565,-2.27301 4.54603,-11.27415 4.81879,-14.91097 0.63644,-9.2739 -7.63734,-15.4565 -17.45674,-15.4565 -8.5465,0 -16.6385,4.72787 -19.5479,12.8198 l -7.3646,20.27529 c -0.7274,2.27301 -1.182,4.54602 -1.182,6.54628 0,9.54666 8.3647,15.27465 17.6386,15.27465 7.0918,0 13.5472,-2.72761 17.3659,-9.27389 1.6365,0.4546 3.5459,0.72736 5.45519,0.72736 10.72863,0 19.18424,-7.63733 22.27554,-17.18399 2.81854,-8.81929 -8.18285,-11.09231 -10.63771,-3.18222 -2.00025,5.63708 -6.1826,9.54666 -11.54691,9.54666 -0.36368,0 -0.90921,0 -1.27291,-0.0909 z m -8.4556,-14.00177 c -0.2728,0.81829 -0.5455,1.54565 -0.6364,2.27302 -5.0007,-0.54553 -9.4558,3.5459 -9.4558,9.00113 0.091,3.0913 1.6366,4.72787 3.3641,6.1826 -0.091,0.0909 -0.091,0.18184 -0.091,0.18184 -1.182,3.18222 -3.9096,5.00064 -6.5463,5.00064 -6.0008,0 -4.2733,-6.54629 -3.5459,-8.63746 1.2729,-4.09142 3.6368,-10.54678 7.6373,-19.9116 1.0001,-3.00038 3.5459,-4.72787 6.3644,-4.72787 2.8186,0 4.637,1.90933 4.637,4.0005 0,1.63657 -1.091,4.72787 -1.7275,6.6372 z"
         style="font-style:normal;font-variant:normal;font-weight:normal;font-stretch:normal;font-size:90.92057037px;font-family:'Bukhari Script';-inkscape-font-specification:'Bukhari Script, Normal';font-variant-ligatures:normal;font-variant-caps:normal;font-variant-numeric:normal;font-feature-settings:normal;text-align:center;writing-mode:lr-tb;text-anchor:middle;fill:#ff895c;fill-opacity:1;stroke-width:1.70476031"
         id="path4509"
         inkscape:export-xdpi="997.18079"
         inkscape:export-ydpi="997.18079" />
      <path
         d="m -939.30494,-126.79366 c -4.09142,10.91047 -9.09205,15.54741 -13.2744,15.54741 -1.63657,0 -2.72762,-0.9092 -2.72762,-2.18209 0,-0.36368 0.0909,-0.9092 0.27277,-1.36381 l 10.81954,-30.64023 c 3.00038,-8.27377 -9.36482,-12.8198 -12.72888,-3.27314 l -10.00126,28.18538 c -2.54578,5.00063 -7.00088,9.09205 -10.63771,9.09205 -1.3638,0 -2.09117,-0.9092 -2.09117,-2.27301 0,-0.72737 0.18184,-1.63657 0.4546,-2.54578 l 10.45587,-28.63998 c 3.36406,-8.63745 -9.36482,-13.36532 -12.63796,-3.90958 l -11.18323,31.27668 c -0.54552,1.63657 -0.81829,3.27314 -0.81829,4.81879 0,7.36456 6.00076,12.36519 13.63809,12.36519 5.45523,0 10.09218,-2.72761 13.45624,-6.36444 2.6367,3.90959 7.54641,6.27352 13.00165,6.27352 8.63745,0 18.54779,-5.36431 25.00315,-24.27579 2.1821,-6.45536 -8.81929,-9.09206 -11.00139,-2.09117 z"
         style="font-style:normal;font-variant:normal;font-weight:normal;font-stretch:normal;font-size:90.92057037px;font-family:'Bukhari Script';-inkscape-font-specification:'Bukhari Script, Normal';font-variant-ligatures:normal;font-variant-caps:normal;font-variant-numeric:normal;font-feature-settings:normal;text-align:center;writing-mode:lr-tb;text-anchor:middle;fill:#ff895c;fill-opacity:1;stroke-width:1.70476031"
         id="path4511"
         inkscape:export-xdpi="997.18079"
         inkscape:export-ydpi="997.18079" />
      <path
         d="m -896.29382,-127.15734 c -3.45498,8.91021 -8.09193,15.45649 -11.9106,15.45649 -1.27288,0 -1.90933,-1.09104 -1.90933,-2.36393 0,-0.54553 0.0909,-1.27289 0.36368,-2.00026 l 5.36432,-14.91097 c 0.54552,-1.81841 0.9092,-3.45498 0.9092,-5.00063 0,-8.63745 -10.91047,-12.27428 -16.00202,-13.81993 1.72749,-5.00063 -2.63669,-10.00126 -7.45548,-10.00126 -3.72775,0 -6.63721,2.27301 -7.63733,5.54616 -0.63645,1.3638 -0.90921,3.00037 -0.90921,4.36418 0,2.27302 0.81829,4.63695 2.27302,6.45536 l -6.63721,17.91136 c -2.36393,7.81916 8.72838,8.81929 10.91047,2.18209 l 5.09155,-13.63809 c 3.00038,0.90921 7.00089,1.72749 5.63708,6.1826 l -4.0005,11.09231 c -0.72737,2.09117 -1.09105,4.00051 -1.09105,5.81892 0,7.91009 6.27352,13.09256 13.81993,13.09256 9.91034,0 18.91147,-8.81929 24.27579,-24.18487 2.09117,-6.00076 -9.09206,-8.8193 -11.09231,-2.18209 z"
         style="font-style:normal;font-variant:normal;font-weight:normal;font-stretch:normal;font-size:90.92057037px;font-family:'Bukhari Script';-inkscape-font-specification:'Bukhari Script, Normal';font-variant-ligatures:normal;font-variant-caps:normal;font-variant-numeric:normal;font-feature-settings:normal;text-align:center;writing-mode:lr-tb;text-anchor:middle;fill:#ff895c;fill-opacity:1;stroke-width:1.70476031"
         id="path4513"
         inkscape:export-xdpi="997.18079"
         inkscape:export-ydpi="997.18079" />
      <path
         d="m -848.6827,-126.9755 c -4.0005,10.91046 -9.00114,15.45649 -13.2744,15.45649 -1.63657,0 -2.54578,-0.9092 -2.54578,-2.45485 0,-0.63645 0.18184,-1.36381 0.45461,-2.27302 l 7.18272,-20.27528 -0.0909,0.0909 c 0.63644,-1.81841 1.00013,-3.45498 1.00013,-5.00063 0,-7.27365 -6.1826,-12.27428 -13.45625,-12.27428 -3.5459,0 -6.36444,0.72736 -8.72837,2.09117 -1.09105,-3.45498 -9.81942,-4.0005 -11.18323,1.09105 l -15.18374,42.55083 c -2.54577,9.182973 10.45587,9.910338 13.36533,1.27288 3.18222,-8.81929 7.36456,-20.63897 10.45586,-29.36734 2.45486,-4.54603 5.63708,-6.72812 8.18285,-6.72812 1.63657,0 2.81854,1.09104 2.81854,2.81853 0,0.63645 -0.27276,1.45473 -0.4546,2.27302 l -6.45536,18.09319 c -0.81829,2.09118 -1.18197,4.09143 -1.18197,6.00076 0,8.36469 6.90996,13.00164 14.63821,13.00164 9.2739,0 19.18424,-6.45536 25.45776,-24.18487 2.6367,-7.27365 -8.81929,-9.09206 -11.00139,-2.18209 z"
         style="font-style:normal;font-variant:normal;font-weight:normal;font-stretch:normal;font-size:90.92057037px;font-family:'Bukhari Script';-inkscape-font-specification:'Bukhari Script, Normal';font-variant-ligatures:normal;font-variant-caps:normal;font-variant-numeric:normal;font-feature-settings:normal;text-align:center;writing-mode:lr-tb;text-anchor:middle;fill:#ff895c;fill-opacity:1;stroke-width:1.70476031"
         id="path4515"
         inkscape:export-xdpi="997.18079"
         inkscape:export-ydpi="997.18079" />
      <path
         d="m -801.82309,-125.15709 c -4.00051,9.54666 -8.54653,13.54716 -12.63796,13.54716 -1.54565,0 -2.45485,-0.81828 -2.45485,-2.27301 0,-0.72737 0.18184,-1.63657 0.4546,-2.6367 l 10.1831,-29.09458 c 3.0913,-9.18298 -8.00101,-11.63783 -12.3652,-6.1826 -1.81841,-1.18197 -5.45523,-2.81854 -10.45586,-2.81854 -6.00076,0 -12.3652,3.36406 -15.0019,10.27403 l -8.54653,24.09395 c -0.54552,1.63657 -0.9092,3.27314 -0.9092,4.90971 0,7.54641 6.09167,13.72901 14.09268,13.72901 4.09143,0 8.3647,-1.7275 11.63784,-4.63695 2.72761,4.63695 9.63758,5.45523 12.45611,5.45523 7.54641,0 16.18387,-4.09143 22.45739,-17.18399 0.72736,-1.63657 1.18196,-2.54577 1.90933,-4.45511 3.5459,-8.72837 -8.27377,-10.72862 -10.81955,-2.72761 z m -34.64074,10.36494 c -3.00038,-0.72736 -2.27301,-4.54603 -1.63657,-6.36444 l 4.72787,-14.09269 c 2.81854,-7.72824 6.54628,-6.18259 6.81904,-6.00075 0.18185,0.0909 4.45511,1.09104 1.45473,9.91034 l -3.27314,9.36482 c -2.72761,6.72812 -6.36444,7.5464 -8.09193,7.18272 z"
         style="font-style:normal;font-variant:normal;font-weight:normal;font-stretch:normal;font-size:90.92057037px;font-family:'Bukhari Script';-inkscape-font-specification:'Bukhari Script, Normal';font-variant-ligatures:normal;font-variant-caps:normal;font-variant-numeric:normal;font-feature-settings:normal;text-align:center;writing-mode:lr-tb;text-anchor:middle;fill:#ff895c;fill-opacity:1;stroke-width:1.70476031"
         id="path4517"
         inkscape:export-xdpi="997.18079"
         inkscape:export-ydpi="997.18079" />
      <path
         d="m -773.41182,-168.61713 c 3.5459,-9.7285 -9.81943,-12.54703 -13.00165,-2.81853 l -17.82043,51.7338 c -0.72736,2.09117 -1.09104,4.00051 -1.09104,5.90984 0,8.36469 6.90996,13.00164 14.91097,13.00164 8.63745,0 19.457,-5.36431 25.82144,-24.27579 2.1821,-6.54628 -7.91009,-10.45587 -11.09231,-2.09117 -4.09142,10.91046 -9.36482,15.54741 -13.63808,15.54741 -1.81841,0 -2.81854,-1.09104 -2.81854,-2.45485 0,-0.36369 0.18184,-1.00013 0.36368,-1.54565 z"
         style="font-style:normal;font-variant:normal;font-weight:normal;font-stretch:normal;font-size:90.92057037px;font-family:'Bukhari Script';-inkscape-font-specification:'Bukhari Script, Normal';font-variant-ligatures:normal;font-variant-caps:normal;font-variant-numeric:normal;font-feature-settings:normal;text-align:center;writing-mode:lr-tb;text-anchor:middle;fill:#ff895c;fill-opacity:1;stroke-width:1.70476031"
         id="path4519"
         inkscape:export-xdpi="997.18079"
         inkscape:export-ydpi="997.18079" />
      <path
         d="m -754.38243,-162.52545 c 4.09142,0 7.45548,-3.36406 7.45548,-7.5464 0,-4.09143 -3.36406,-7.36457 -7.45548,-7.36457 -4.09143,0 -7.45549,3.27314 -7.45549,7.36457 0,4.18234 3.36406,7.5464 7.45549,7.5464 z m -2.27302,17.82043 c 3.18222,-10.45586 -9.2739,-13.18348 -12.72888,-3.18222 -2.90946,8.54654 -6.72812,19.36609 -9.63758,27.8217 -0.54552,1.81841 -1.09105,4.27327 -1.09105,5.81892 0,8.54653 7.09181,13.45624 15.4565,13.45624 8.91022,0 18.72964,-5.45523 25.09408,-24.27579 2.18209,-6.45536 -8.63746,-8.91022 -11.18323,-2.09117 -4.27327,11.81967 -9.09206,15.54741 -12.72888,15.54741 -2.09117,0 -3.45498,-1.36381 -3.45498,-3.0913 0,-0.4546 0.0909,-0.9092 0.27276,-1.45473 z"
         style="font-style:normal;font-variant:normal;font-weight:normal;font-stretch:normal;font-size:90.92057037px;font-family:'Bukhari Script';-inkscape-font-specification:'Bukhari Script, Normal';font-variant-ligatures:normal;font-variant-caps:normal;font-variant-numeric:normal;font-feature-settings:normal;text-align:center;writing-mode:lr-tb;text-anchor:middle;fill:#ff895c;fill-opacity:1;stroke-width:1.70476031"
         id="path4521"
         inkscape:export-xdpi="997.18079"
         inkscape:export-ydpi="997.18079" />
      <path
         d="m -715.342,-119.79278 c 0,0.0909 0,-1.36381 -0.36368,-3.0913 0.63644,-0.4546 1.27289,-1.18197 1.81841,-2.00025 1.54565,-2.27301 4.54603,-11.27415 4.81879,-14.91097 0.63644,-9.2739 -7.63733,-15.4565 -17.45675,-15.4565 -8.54653,0 -16.63847,4.72787 -19.54792,12.8198 l -7.36457,20.27529 c -0.72736,2.27301 -1.18197,4.54602 -1.18197,6.54628 0,9.54666 8.3647,15.27465 17.63859,15.27465 7.09181,0 13.54717,-2.72761 17.36583,-9.27389 1.63657,0.4546 3.5459,0.72736 5.45524,0.72736 10.72862,0 19.18424,-7.63733 22.27554,-17.18399 2.81853,-8.81929 -8.18285,-11.09231 -10.63771,-3.18222 -2.00025,5.63708 -6.1826,9.54666 -11.54691,9.54666 -0.36368,0 -0.90921,0 -1.27289,-0.0909 z m -8.45561,-14.00177 c -0.27277,0.81829 -0.54553,1.54565 -0.63645,2.27302 -5.00063,-0.54553 -9.45574,3.5459 -9.45574,9.00113 0.0909,3.0913 1.63657,4.72787 3.36406,6.1826 -0.0909,0.0909 -0.0909,0.18184 -0.0909,0.18184 -1.18196,3.18222 -3.90958,5.00064 -6.54628,5.00064 -6.00076,0 -4.27326,-6.54629 -3.5459,-8.63746 1.27289,-4.09142 3.63682,-10.54678 7.63733,-19.9116 1.00012,-3.00038 3.5459,-4.72787 6.36444,-4.72787 2.81854,0 4.63695,1.90933 4.63695,4.0005 0,1.63657 -1.09105,4.72787 -1.72749,6.6372 z"
         style="font-style:normal;font-variant:normal;font-weight:normal;font-stretch:normal;font-size:90.92057037px;font-family:'Bukhari Script';-inkscape-font-specification:'Bukhari Script, Normal';font-variant-ligatures:normal;font-variant-caps:normal;font-variant-numeric:normal;font-feature-settings:normal;text-align:center;writing-mode:lr-tb;text-anchor:middle;fill:#ff895c;fill-opacity:1;stroke-width:1.70476031"
         id="path4523"
         inkscape:export-xdpi="997.18079"
         inkscape:export-ydpi="997.18079" />
    </g>
    <g
       aria-label="WALLET"
       style="font-style:normal;font-variant:normal;font-weight:normal;font-stretch:normal;font-size:26.399786px;line-height:0;font-family:sans-serif;-inkscape-font-specification:'sans-serif, Normal';font-variant-ligatures:normal;font-variant-caps:normal;font-variant-numeric:normal;font-feature-settings:normal;text-align:center;letter-spacing:0px;word-spacing:0px;writing-mode:lr-tb;text-anchor:middle;opacity:0.98000004;fill:#ff895c;fill-opacity:1;stroke:#ff895c;stroke-width:0.55699998;stroke-miterlimit:4;stroke-dasharray:none;stroke-opacity:1"
       id="text4522"
       inkscape:export-xdpi="997.18079"
       inkscape:export-ydpi="997.18079">
      <path
         inkscape:export-xdpi="997.18079"
         inkscape:export-ydpi="997.18079"
         d="m -784.50667,-81.756455 -4.98863,19.193986 h -2.87459 l -4.03473,-15.932684 -3.9445,15.932684 h -2.81013 l -5.07887,-19.193986 h 2.61678 l 4.03473,15.958465 3.97028,-15.958465 h 2.591 l 4.00895,16.113151 4.00895,-16.113151 z"
         style="font-style:normal;font-variant:normal;font-weight:normal;font-stretch:normal;font-size:26.399786px;font-family:sans-serif;-inkscape-font-specification:'sans-serif, Normal';font-variant-ligatures:normal;font-variant-caps:normal;font-variant-numeric:normal;font-feature-settings:normal;text-align:center;writing-mode:lr-tb;text-anchor:middle;fill:#ff895c;fill-opacity:1;stroke:#ff895c;stroke-width:0.55699998;stroke-miterlimit:4;stroke-dasharray:none;stroke-opacity:1"
         id="path4494" />
      <path
         inkscape:export-xdpi="997.18079"
         inkscape:export-ydpi="997.18079"
         d="m -766.2408,-62.562469 h -2.7199 l -1.88202,-5.349566 h -8.30149 l -1.88202,5.349566 h -2.59099 l 6.98666,-19.193986 h 3.4031 z m -5.38824,-7.540955 -3.36443,-9.42297 -3.37731,9.42297 z"
         style="font-style:normal;font-variant:normal;font-weight:normal;font-stretch:normal;font-size:26.399786px;font-family:sans-serif;-inkscape-font-specification:'sans-serif, Normal';font-variant-ligatures:normal;font-variant-caps:normal;font-variant-numeric:normal;font-feature-settings:normal;text-align:center;writing-mode:lr-tb;text-anchor:middle;fill:#ff895c;fill-opacity:1;stroke:#ff895c;stroke-width:0.55699998;stroke-miterlimit:4;stroke-dasharray:none;stroke-opacity:1"
         id="path4496" />
      <path
         inkscape:export-xdpi="997.18079"
         inkscape:export-ydpi="997.18079"
         d="m -751.18468,-62.562469 h -12.14287 v -19.193986 h 2.55233 v 16.925254 h 9.59054 z"
         style="font-style:normal;font-variant:normal;font-weight:normal;font-stretch:normal;font-size:26.399786px;font-family:sans-serif;-inkscape-font-specification:'sans-serif, Normal';font-variant-ligatures:normal;font-variant-caps:normal;font-variant-numeric:normal;font-feature-settings:normal;text-align:center;writing-mode:lr-tb;text-anchor:middle;fill:#ff895c;fill-opacity:1;stroke:#ff895c;stroke-width:0.55699998;stroke-miterlimit:4;stroke-dasharray:none;stroke-opacity:1"
         id="path4498" />
      <path
         inkscape:export-xdpi="997.18079"
         inkscape:export-ydpi="997.18079"
         d="m -736.48948,-62.562469 h -12.14287 v -19.193986 h 2.55232 v 16.925254 h 9.59055 z"
         style="font-style:normal;font-variant:normal;font-weight:normal;font-stretch:normal;font-size:26.399786px;font-family:sans-serif;-inkscape-font-specification:'sans-serif, Normal';font-variant-ligatures:normal;font-variant-caps:normal;font-variant-numeric:normal;font-feature-settings:normal;text-align:center;writing-mode:lr-tb;text-anchor:middle;fill:#ff895c;fill-opacity:1;stroke:#ff895c;stroke-width:0.55699998;stroke-miterlimit:4;stroke-dasharray:none;stroke-opacity:1"
         id="path4500" />
      <path
         inkscape:export-xdpi="997.18079"
         inkscape:export-ydpi="997.18079"
         d="m -721.29156,-62.562469 h -12.6456 v -19.193986 h 12.6456 v 2.268732 h -10.09328 v 5.259332 h 10.09328 v 2.268732 h -10.09328 v 7.128458 h 10.09328 z"
         style="font-style:normal;font-variant:normal;font-weight:normal;font-stretch:normal;font-size:26.399786px;font-family:sans-serif;-inkscape-font-specification:'sans-serif, Normal';font-variant-ligatures:normal;font-variant-caps:normal;font-variant-numeric:normal;font-feature-settings:normal;text-align:center;writing-mode:lr-tb;text-anchor:middle;fill:#ff895c;fill-opacity:1;stroke:#ff895c;stroke-width:0.55699998;stroke-miterlimit:4;stroke-dasharray:none;stroke-opacity:1"
         id="path4502" />
      <path
         inkscape:export-xdpi="997.18079"
         inkscape:export-ydpi="997.18079"
         d="m -703.54131,-79.487723 h -6.85776 v 16.925254 h -2.55232 v -16.925254 h -6.85776 v -2.268732 h 16.26784 z"
         style="font-style:normal;font-variant:normal;font-weight:normal;font-stretch:normal;font-size:26.399786px;font-family:sans-serif;-inkscape-font-specification:'sans-serif, Normal';font-variant-ligatures:normal;font-variant-caps:normal;font-variant-numeric:normal;font-feature-settings:normal;text-align:center;writing-mode:lr-tb;text-anchor:middle;fill:#ff895c;fill-opacity:1;stroke:#ff895c;stroke-width:0.55699998;stroke-miterlimit:4;stroke-dasharray:none;stroke-opacity:1"
         id="path4504" />
    </g>
  </g>
</svg>
